# xmcd
#
# Track frame offsets:
#	150
#	17084
#	36345
#	46887
#	70707
#	83874
#
# Disc length: 1383 seconds
#
# Revision: 2
# Processed by: cddbd v1.4PL0 Copyright (c) Steve Scherf et al.
# Submitted via: CDmax 1.8
#
DISCID=44056506
DTITLE=Wayne Hancock - The South Austin Sessions
DYEAR=2001
DGENRE=Honky Tonk
TTITLE0=Hoy Hoy Hoy
TTITLE1=Stormy Weather
TTITLE2=Old Man Winter's Gonna Rock and Roll Tonight
TTITLE3=Draggin' Me Down
TTITLE4=Hillbilly Hill Country Gall
TTITLE5=Wine Spodiodie
EXTD=
EXTT0=
EXTT1=
EXTT2=
EXTT3=
EXTT4=
EXTT5=
PLAYORDER=
